<svg width="432" height="432" viewBox="0 0 432 432" fill="none" xmlns="http://www.w3.org/2000/svg">
<rect width="432" height="432" rx="100" fill="#504842"/>
<circle cx="216" cy="216" r="216" fill="#504842"/>
<path d="M164.501 375C157.301 387 159.778 379.185 159.987 378.541C159.997 378.511 160.004 378.484 160.011 378.453C162.924 365.793 168.516 354.976 177.501 345.5C195.379 326.645 216.5 326.596 241.001 318C296.754 298.44 318.992 262.767 329.315 212.861C329.556 211.692 331.192 211.818 331.182 213.011C330.848 254.568 314.1 293.753 277.001 315.5C239.34 337.576 189.255 333.738 164.501 375Z" fill="#F1F3FF"/>
<path d="M239.005 96.698C233.46 92.5715 232.059 86.4795 233.684 79.7512C233.946 78.6674 235.39 78.9458 235.447 80.0594C235.728 85.6384 237.119 90.6615 240.189 95.3415C240.779 96.2407 239.868 97.34 239.005 96.698Z" fill="#F1F3FF"/>
<path d="M164.501 375C157.301 387 159.778 379.185 159.987 378.541C159.997 378.511 160.004 378.484 160.011 378.453C162.924 365.793 168.516 354.976 177.501 345.5C195.379 326.645 216.5 326.596 241.001 318C296.754 298.44 318.992 262.767 329.315 212.861C329.556 211.692 331.192 211.818 331.182 213.011C330.848 254.568 314.1 293.753 277.001 315.5C239.34 337.576 189.255 333.738 164.501 375Z" stroke="#F1F3FF"/>
<path d="M239.005 96.698C233.46 92.5715 232.059 86.4795 233.684 79.7512C233.946 78.6674 235.39 78.9458 235.447 80.0594C235.728 85.6384 237.119 90.6615 240.189 95.3415C240.779 96.2407 239.868 97.34 239.005 96.698Z" stroke="#F1F3FF"/>
<path d="M160.107 57.3045C176.622 65.6874 190.428 76.3542 203.046 89.963C203.514 90.4679 203.338 91.2832 202.708 91.5604C192.232 96.168 182.845 101.894 174.007 109.163C173.498 109.582 172.727 109.409 172.455 108.809C165.063 92.4815 160.594 76.0879 158.683 58.288C158.599 57.5085 159.408 56.9496 160.107 57.3045Z" fill="#F1F3FF" stroke="#F1F3FF"/>
<path d="M152 169.5C145.745 180.272 131.868 191.95 122.76 198.436C121.886 199.058 122.47 200.694 123.542 200.706C124.573 200.717 125.622 200.795 126.5 201C130.593 201.954 131.67 203.184 130.5 207.5C130.079 209.051 128.703 210.739 127.682 211.83C127.166 212.381 127.358 213.315 128.075 213.55C147.117 219.792 162.303 209.748 177 197.5C199.5 173.5 244 142 276.5 176C280.15 180.394 282.737 187.933 284.039 192.394C284.325 193.376 285.75 193.393 286.008 192.402C286.592 190.159 287.258 187.277 287.5 185C288.245 177.986 287.633 173.862 286 167C284.818 162.031 281.875 155.799 279.785 151.737C279.288 150.772 280.411 149.843 281.205 150.582C295.329 163.742 297.104 183.525 293 201C277.5 243.5 246.386 261.188 208 268.5C172.626 275.238 140.162 298.159 136 337C133.684 358.617 138.222 367.121 140.412 369.875C140.868 370.449 141.65 370.158 141.792 369.439C149.788 328.827 184.99 311.573 223.5 304.5C314.656 285.179 342.49 186.828 273.442 114.502C272.797 113.826 271.606 114.322 271.591 115.257C271.509 120.395 270.044 125.456 267.5 128C264.5 131 261.206 129.682 261.997 126.5C267.136 108.523 268.481 81.8719 233.729 47.7152C233.333 47.326 232.68 47.3297 232.303 47.7372C210.542 71.2527 212.619 106.925 231.997 115C237.997 117.5 239.003 115.5 239.5 114.5C240.142 113.209 239.5 111 238.997 110.5C236.986 108.5 230.797 106.7 225.997 93.5C221.451 80.9986 228.506 66.6136 233.23 60.8786C233.621 60.4037 234.34 60.4383 234.728 60.9156C238.457 65.5015 245.225 72.9092 248.497 86C253.064 104.266 249 111 244.997 118C241.98 123.278 234.695 127.648 231.021 128.991C231.005 128.997 230.992 129.002 230.976 129.009C230.612 129.16 225.733 131.132 224.997 129C224.534 127.656 224.997 126.5 225.997 125.5C226.739 124.759 227.857 124.064 228.848 123.531C229.629 123.11 229.623 121.894 228.828 121.501C216.923 115.614 212.056 106.239 209.315 97.5293C209.141 96.9746 208.544 96.6733 208.005 96.8909C200.485 99.9266 184.347 108.153 172.5 120C157 135.5 161 154 152 169.5Z" fill="#F1F3FF" stroke="#F1F3FF"/>
<path d="M201.5 230.5C205.264 224.59 206.594 214.023 206.916 210.896C206.968 210.386 207.389 209.988 207.901 209.989C217.134 210.019 222.69 214.485 222.5 224C222.211 238.423 204.81 242.845 194.5 248C188.72 250.89 191 254.143 199 253C219.949 250.007 247.499 219.07 219.595 204.051C219.534 204.018 219.466 203.99 219.4 203.971C200.689 198.573 177.734 213.975 159.916 218.145C158.851 218.394 158.421 217.117 159.374 216.582C173.588 208.605 184.044 201.456 194.5 191C210.919 178.56 229.056 165.597 251 171.5C266.544 175.682 277.778 185.754 278.5 202.5C279.498 225.642 258.019 241.779 240 251.5C213.424 265.837 191.5 260 158 266.5C135.702 273.771 126.001 290.814 120.051 311.532C119.821 312.332 118.934 312.426 118.708 311.625C118.093 309.442 117.626 305.184 119.5 298C129.218 260.75 151.954 254.014 182.906 245.027C182.968 245.009 183.029 244.985 183.087 244.956C191.202 240.785 196.587 238.215 201.5 230.5Z" fill="#F1F3FF" stroke="#F1F3FF"/>
</svg>
