<svg width="1267" height="196" viewBox="0 0 1267 196" fill="none" xmlns="http://www.w3.org/2000/svg">
<path d="M0.0130005 192V188.544H23.053V3.45599H0.0130005V-1.52588e-05H79.629V3.45599H56.717V188.544H87.821C97.4637 188.544 105.528 187.264 112.013 184.704C118.584 182.144 123.832 178.475 127.757 173.696C131.768 168.917 134.754 163.2 136.717 156.544C138.68 149.888 139.96 142.507 140.557 134.4H144.013V192H0.0130005ZM243.041 143.744C242.529 139.307 240.908 135.637 238.177 132.736C235.532 129.749 232.417 127.531 228.833 126.08C225.249 124.629 221.878 123.904 218.721 123.904H204.641V120.448H218.721C221.878 120.448 225.249 119.808 228.833 118.528C232.417 117.248 235.532 115.243 238.177 112.512C240.908 109.696 242.529 106.069 243.041 101.632H246.497V143.744H243.041ZM276.449 147.2H279.905V192H161.505V188.544H178.273V64.896H161.505V61.44H278.753V101.12H275.169C274.572 92.5867 272.524 85.6747 269.025 80.384C265.612 75.008 261.345 71.0827 256.225 68.608C251.19 66.1333 245.814 64.896 240.097 64.896H211.809V188.544H236.129C243.553 188.544 250.166 187.264 255.969 184.704C261.857 182.059 266.55 177.707 270.049 171.648C273.633 165.589 275.766 157.44 276.449 147.2ZM364.403 195.712L305.523 61.44H344.435L386.419 158.08L428.659 61.44H432.627L373.747 195.712H364.403ZM293.875 64.896V61.44H367.859V64.896H293.875ZM405.491 64.896V61.44H449.779V64.896H405.491ZM482.643 192V61.44H516.051V192H482.643ZM460.755 192V188.544H540.371V192H460.755ZM460.755 64.896V61.44H540.371V64.896H460.755ZM559.317 110.08V61.44H699.989V110.08H696.533C695.253 100.523 693.248 92.3733 690.517 85.632C687.786 78.8907 683.989 73.7707 679.125 70.272C674.261 66.688 668.117 64.896 660.693 64.896H598.741C591.232 64.896 585.045 66.688 580.181 70.272C575.402 73.7707 571.648 78.8907 568.917 85.632C566.186 92.3733 564.181 100.523 562.901 110.08H559.317ZM591.061 192V188.544H668.117V192H591.061ZM612.821 192V62.336H646.485V192H612.821ZM740.893 192V61.44H774.301V192H740.893ZM719.005 192V188.544H798.621V192H719.005ZM719.005 64.896V61.44H798.621V64.896H719.005ZM904.351 147.712C903.412 142.336 900.682 137.856 896.159 134.272C891.636 130.688 885.876 128.896 878.879 128.896H864.671V125.568H878.879C885.876 125.568 891.636 124.032 896.159 120.96C900.682 117.803 903.412 113.536 904.351 108.16H907.807V147.712H904.351ZM934.815 61.44V101.12H931.359C930.762 93.2693 928.756 86.656 925.343 81.28C921.93 75.904 917.535 71.8507 912.159 69.12C906.868 66.3893 901.066 65.024 894.751 65.024H870.559V188.544H889.631V192H820.255V188.544H837.023V65.024H820.255V61.44H934.815ZM1023.53 194.56C1010.04 194.56 997.97 191.829 987.303 186.368C976.636 180.821 968.188 172.971 961.959 162.816C955.73 152.661 952.615 140.629 952.615 126.72C952.615 112.811 955.9 100.779 962.471 90.624C969.042 80.4693 977.703 72.6613 988.455 67.2C999.207 61.6533 1010.9 58.88 1023.53 58.88C1036.16 58.88 1047.85 61.6533 1058.6 67.2C1069.44 72.6613 1078.14 80.4693 1084.71 90.624C1091.28 100.779 1094.57 112.811 1094.57 126.72C1094.57 140.629 1091.45 152.661 1085.22 162.816C1078.99 172.971 1070.5 180.821 1059.75 186.368C1049 191.829 1036.92 194.56 1023.53 194.56ZM1023.53 191.36C1029.76 191.36 1035.05 189.696 1039.4 186.368C1043.75 183.04 1047.25 178.432 1049.9 172.544C1052.54 166.656 1054.46 159.829 1055.66 152.064C1056.94 144.213 1057.58 135.765 1057.58 126.72C1057.58 117.675 1056.85 109.269 1055.4 101.504C1053.95 93.6533 1051.77 86.784 1048.87 80.896C1046.06 75.008 1042.51 70.4 1038.25 67.072C1033.98 63.744 1029.07 62.08 1023.53 62.08C1017.98 62.08 1013.07 63.744 1008.81 67.072C1004.54 70.4 1001 75.008 998.183 80.896C995.367 86.784 993.234 93.6533 991.783 101.504C990.332 109.269 989.607 117.675 989.607 126.72C989.607 135.765 990.204 144.213 991.399 152.064C992.679 159.829 994.642 166.656 997.287 172.544C999.932 178.432 1003.39 183.04 1007.66 186.368C1012.01 189.696 1017.3 191.36 1023.53 191.36ZM1216.75 192L1123.18 61.44H1161.32L1255.92 192H1216.75ZM1108.72 192V188.544H1153.64V192H1108.72ZM1124.33 192L1186.03 118.656H1190.38L1128.68 192H1124.33ZM1195.63 192V188.544H1266.03V192H1195.63ZM1114.35 64.896V61.44H1181.55V64.896H1114.35ZM1187.05 123.52L1238.25 61.952H1242.48L1191.53 123.52H1187.05ZM1216.24 64.896V61.44H1256.81V64.896H1216.24Z" fill="#F1F3FF"/>
</svg>
